# xmcd
#
# Track frame offsets: 
#        150
#        20260
#        37372
#        66883
#        89796
#        102972
#        125183
#        149623
#        176941
#        198911
#        226253
#        249183
#
# Disc length: 3654 seconds
#
# Revision: 0
# Processed by: cddbd v1.5.2PL0 Copyright (c) Steve Scherf et al.
# Submitted via: ExactAudioCopyFreeDBPlugin 1.0
#
DISCID=b40e440c
DTITLE=Magic Slim - Storyville - The Chicago Blues Box 2 - CD6
DYEAR=2017
DGENRE=Blues
TTITLE0=Buddy Buddy Friend
TTITLE1=You Upset Me Baby
TTITLE2=Born Down The Bridge
TTITLE3=Rock Me Baby
TTITLE4=Tell Me Baby
TTITLE5=Jumpin' At Ma Bea's
TTITLE6=I Don't Got Over
TTITLE7=Tramp
TTITLE8=Josephine's
TTITLE9=As The Years Go Passing By
TTITLE10=Everything Gonna Be Alright
TTITLE11=Mary Lou
EXTD=
EXTT0=
EXTT1=
EXTT2=
EXTT3=
EXTT4=
EXTT5=
EXTT6=
EXTT7=
EXTT8=
EXTT9=
EXTT10=
EXTT11=
PLAYORDER=
